<svg width="88" height="23" viewBox="0 0 88 23" fill="none" xmlns="http://www.w3.org/2000/svg">
<path d="M10.9438 22.08L12.0638 16.448L12.9598 9.79202L13.8558 16.448L14.9758 22.08H22.0158L25.9198 6.27202H19.6478L18.9438 13.024L18.4318 18.592L17.5358 13.056L16.0958 6.27202H9.75984L8.44784 13.056L7.48784 18.592L6.97584 13.024L6.27184 6.27202H-0.000156239L3.90384 22.08H10.9438ZM34.2498 22.4C36.8098 22.4 38.5058 21.184 39.1778 20.416L37.6098 16.096C37.0978 16.896 36.2658 17.408 35.5618 17.408C34.8258 17.408 34.4098 16.992 34.4098 16.16V10.624H38.2498V6.27202H34.4098V1.92002L28.6498 4.48002V6.27202H26.4098V10.624H28.6498V16.992C28.6498 20.064 30.1538 22.4 34.2498 22.4ZM49.5063 22.08L50.6263 16.448L51.5223 9.79202L52.4183 16.448L53.5383 22.08H60.5783L64.4823 6.27202H58.2103L57.5063 13.024L56.9943 18.592L56.0983 13.056L54.6583 6.27202H48.3223L47.0103 13.056L46.0503 18.592L45.5383 13.024L44.8343 6.27202H38.5623L42.4663 22.08H49.5063ZM70.9736 22.08V14.112C70.9736 11.552 72.1896 10.304 73.5016 10.304C74.4296 10.304 74.8136 10.912 74.8136 11.808C74.8136 12.768 74.1736 13.984 73.5976 14.656H78.8776C79.3256 13.856 79.9656 12.224 79.9656 10.304C79.9656 7.68002 78.9416 5.95202 76.1896 5.95202C72.9576 5.95202 71.4536 8.89602 70.9736 11.616V6.27202H65.2136V22.08H70.9736ZM84.2246 6.30402C85.9526 6.30402 87.3606 5.02402 87.3606 3.13602C87.3606 1.28002 85.9526 1.52588e-05 84.2246 1.52588e-05C82.4966 1.52588e-05 81.0886 1.28002 81.0886 3.13602C81.0886 5.02402 82.4966 6.30402 84.2246 6.30402ZM84.2246 4.09602C83.7126 4.09602 83.3926 3.74402 83.3926 3.13602C83.3926 2.52802 83.7126 2.20802 84.2246 2.20802C84.7366 2.20802 85.0566 2.52802 85.0566 3.13602C85.0566 3.74402 84.7366 4.09602 84.2246 4.09602Z" fill="black"/>
</svg>
